# xmcd
#
# Track frame offsets:
# 150
# 15495
# 32762
# 48025
# 60222
# 77632
# 92605
# 109655
# 125960
# 138587
#
# Disc length: 2039 seconds
#
# Revision: 0
# Processed by: cddbd v1.4PL0 Copyright (c) Steve Scherf et al.
# Submitted via: MacMP3 Pro 5.0 (http://mp3.act2.co.jp/)
#
DISCID=7607f50a
DTITLE=The Persuaders - Thin Line Between Love And Hate
DYEAR=1900
DGENRE=
TTITLE0=Thin Line Between Love And Hate
TTITLE1=Let's Get Down Together
TTITLE2=Blood Brothers
TTITLE3=You Musta Put Something In Your Love
TTITLE4=Thanks For Loving Me
TTITLE5=Love Gonna Pack Up(And Walk Out)
TTITLE6=If This What You Call Love(I Don't Want No Part Of It)
TTITLE7=Mr,Sunshine
TTITLE8=Thigh Spy
TTITLE9=Can't Go No Further And Do No Better
EXTD=
EXTT0=
EXTT1=
EXTT2=
EXTT3=
EXTT4=
EXTT5=
EXTT6=
EXTT7=
EXTT8=
EXTT9=
PLAYORDER=
